# File created by Blade
# Date/Time:  Thu Jan 22 15:49:58 2015
# Frame Rate: 120.000 fps
#------------------------------------------------------
:FULLY-SPECIFIED
:DEGREES
1097
root 2.879637 37.101395 5.399683 0.066652 -6.082486 0.929594
RightUpLeg 8.519779 -5.649848 -3.428757
RightLeg -5.519314 -0.000000 0.000000
RightFoot -10.102421 -10.965211 16.057417
RightToeBase 13.112684 -0.000000 -0.000000
LeftUpLeg 8.484035 7.738710 3.570560
LeftLeg -3.568348 -0.000000 0.000000
LeftFoot -8.003388 8.335721 -17.384148
LeftToeBase 8.307926 -0.000000 -0.000000
Spine -1.115269 -6.148986 -4.188741
RightShoulder -19.916812 5.343362 -35.576151
RightArm 173.723882 51.258798 117.242916
RightForeArm 63.494540 -0.000000 142.348381
RightHand 22.932510 -0.000000 4.451267
RightHandThumb1 -24.326973 -0.000000 -32.862282
LeftShoulder -28.732806 15.835444 37.350820
LeftArm 163.414191 -62.149472 -139.895444
LeftForeArm -39.394539 -0.000000 107.003787
LeftHand -13.949186 0.000000 -5.428486
LeftHandThumb1 -26.253704 0.000000 33.147579
Head 15.752650 25.069571 20.648402
1098
root 2.882701 37.100621 5.397415 0.031407 -6.093104 0.946016
RightUpLeg 8.552017 -5.655259 -3.452696
RightLeg -5.527102 -0.000000 0.000000
RightFoot -10.094751 -10.946294 16.011452
RightToeBase 13.120362 -0.000000 -0.000000
LeftUpLeg 8.514428 7.748845 3.554616
LeftLeg -3.564555 -0.000000 0.000000
LeftFoot -8.011575 8.322804 -17.393733
LeftToeBase 8.457843 -0.000000 -0.000000
Spine -1.118727 -6.156427 -4.184612
RightShoulder -19.937457 5.181106 -35.554648
RightArm 173.291370 51.204349 116.925886
RightForeArm 63.119098 -0.000000 142.474371
RightHand 22.898310 -0.000000 4.219900
RightHandThumb1 -24.326973 -0.000000 -32.862282
LeftShoulder -28.719578 15.834328 37.352257
LeftArm 163.069919 -62.245183 -139.342804
LeftForeArm -39.364000 -0.000000 106.836014
LeftHand -13.878304 -0.000000 -5.758928
LeftHandThumb1 -26.253704 0.000000 33.147579
Head 16.254466 25.256131 20.695013
1099
root 2.884608 37.100083 5.394642 0.001630 -6.109993 0.955994
RightUpLeg 8.571103 -5.637241 -3.476378
RightLeg -5.516583 -0.000000 0.000000
RightFoot -10.095057 -10.895374 16.022932
RightToeBase 13.099090 -0.000000 -0.000000
LeftUpLeg 8.539097 7.764998 3.546232
LeftLeg -3.561516 -0.000000 0.000000
LeftFoot -8.002831 8.324667 -17.387164
LeftToeBase 8.383263 -0.000000 -0.000000
Spine -1.130053 -6.141529 -4.183097
RightShoulder -19.930374 4.972966 -35.525823
RightArm 172.949180 51.131632 116.713677
RightForeArm 62.863944 -0.000000 142.588954
RightHand 22.843220 -0.000000 4.051785
RightHandThumb1 -24.326973 -0.000000 -32.862282
LeftShoulder -28.678525 15.823533 37.383162
LeftArm 162.718396 -62.406499 -138.772942
LeftForeArm -39.141535 0.000000 106.680544
LeftHand -13.789325 -0.000000 -5.762478
LeftHandThumb1 -26.253704 0.000000 33.147579
Head 16.807332 25.358809 20.753973
1100
root 2.887564 37.098200 5.393309 -0.038393 -6.121177 0.974690
RightUpLeg 8.612159 -5.638975 -3.504233
RightLeg -5.530881 -0.000000 0.000000
RightFoot -10.106833 -10.883642 16.009492
RightToeBase 13.142815 -0.000000 -0.000000
LeftUpLeg 8.576295 7.775119 3.529421
LeftLeg -3.559946 -0.000000 0.000000
LeftFoot -8.017783 8.317102 -17.408308
LeftToeBase 8.435466 -0.000000 -0.000000
Spine -1.135302 -6.155294 -4.203489
RightShoulder -19.849713 4.795051 -35.487269
RightArm 172.680336 51.108800 116.563542
RightForeArm 62.653000 -0.000000 142.664887
RightHand 22.896363 -0.000000 3.805675
RightHandThumb1 -24.326973 -0.000000 -32.862282
LeftShoulder -28.657757 15.869308 37.424051
LeftArm 162.400671 -62.559728 -138.241138
LeftForeArm -39.186260 -0.000000 106.485895
LeftHand -13.643879 -0.000000 -5.918274
LeftHandThumb1 -26.253704 0.000000 33.147579
Head 17.386580 25.475553 20.854706
1101
root 2.891040 37.096586 5.391369 -0.084709 -6.145766 0.998658
RightUpLeg 8.652810 -5.643079 -3.538717
RightLeg -5.543786 -0.000000 0.000000
RightFoot -10.143610 -10.868557 16.054274
RightToeBase 13.229575 -0.000000 -0.000000
LeftUpLeg 8.622563 7.812319 3.508094
LeftLeg -3.565186 -0.000000 0.000000
LeftFoot -8.011689 8.313991 -17.384730
LeftToeBase 8.309693 -0.000000 -0.000000
Spine -1.143274 -6.154050 -4.207299
RightShoulder -19.833775 4.539434 -35.468987
RightArm 172.295686 51.056556 116.337466
RightForeArm 62.380503 -0.000000 142.762968
RightHand 22.871505 -0.000000 3.547560
RightHandThumb1 -24.326973 -0.000000 -32.862282
LeftShoulder -28.630848 15.796880 37.509938
LeftArm 161.777283 -62.806300 -137.468874
LeftForeArm -39.063931 0.000000 106.313975
LeftHand -13.542751 -0.000000 -6.082961
LeftHandThumb1 -26.253704 0.000000 33.147579
Head 18.019454 25.625604 20.875371
1102
root 2.894243 37.095238 5.388775 -0.122368 -6.173583 1.013938
RightUpLeg 8.675035 -5.623802 -3.563243
RightLeg -5.531020 -0.000000 0.000000
RightFoot -10.174854 -10.850260 16.061765
RightToeBase 13.308544 -0.000000 -0.000000
LeftUpLeg 8.658439 7.834600 3.491999
LeftLeg -3.563040 -0.000000 0.000000
LeftFoot -8.017575 8.319059 -17.355388
LeftToeBase 8.415666 -0.000000 -0.000000
Spine -1.159099 -6.164171 -4.186844
RightShoulder -19.801631 4.332980 -35.494003
RightArm 171.861757 51.057061 116.081413
RightForeArm 62.107396 -0.000000 142.839496
RightHand 22.876324 -0.000000 3.113541
RightHandThumb1 -24.326973 -0.000000 -32.862282
LeftShoulder -28.575504 15.880870 37.504247
LeftArm 161.574268 -62.987114 -137.086025
LeftForeArm -39.071482 -0.000000 106.153692
LeftHand -13.493369 -0.000000 -6.235889
LeftHandThumb1 -26.253704 0.000000 33.147579
Head 18.692780 25.797609 20.885628
1103
root 2.897125 37.093938 5.386229 -0.168404 -6.198848 1.020809
RightUpLeg 8.718351 -5.602542 -3.582356
RightLeg -5.542276 -0.000000 0.000000
RightFoot -10.144048 -10.829489 15.970189
RightToeBase 13.234189 -0.000000 -0.000000
LeftUpLeg 8.709942 7.828858 3.483821
LeftLeg -3.575840 -0.000000 0.000000
LeftFoot -8.028896 8.343434 -17.367774
LeftToeBase 8.422951 -0.000000 -0.000000
Spine -1.157360 -6.169219 -4.148660
RightShoulder -19.762717 4.134567 -35.536583
RightArm 171.431729 51.096357 115.862199
RightForeArm 61.923077 -0.000000 142.879047
RightHand 22.911314 -0.000000 2.746486
RightHandThumb1 -24.326973 -0.000000 -32.862282
LeftShoulder -28.517118 16.015871 37.441250
LeftArm 161.510859 -63.147293 -136.817645
LeftForeArm -39.011263 -0.000000 105.977697
LeftHand -13.326133 -0.000000 -6.302818
LeftHandThumb1 -26.253704 0.000000 33.147579
Head 19.413300 26.044504 20.900737
1104
root 2.900116 37.092022 5.384781 -0.231945 -6.233338 1.037012
RightUpLeg 8.760820 -5.597301 -3.608535
RightLeg -5.519082 -0.000000 0.000000
RightFoot -10.179806 -10.813505 15.938602
RightToeBase 13.285970 -0.000000 -0.000000
LeftUpLeg 8.778495 7.860539 3.473641
LeftLeg -3.580763 -0.000000 0.000000
LeftFoot -8.033183 8.333407 -17.368346
LeftToeBase 8.478286 -0.000000 -0.000000
Spine -1.141087 -6.144295 -4.145962
RightShoulder -19.668767 3.940471 -35.577675
RightArm 171.073250 51.201802 115.726170
RightForeArm 61.865685 -0.000000 142.900452
RightHand 22.983663 -0.000000 2.352106
RightHandThumb1 -24.326973 -0.000000 -32.862282
LeftShoulder -28.439384 16.203099 37.400498
LeftArm 161.552943 -63.244617 -136.663285
LeftForeArm -38.842511 -0.000000 105.831335
LeftHand -13.281984 -0.000000 -6.438888
LeftHandThumb1 -26.253704 0.000000 33.147579
Head 20.119944 26.226624 20.959476
1105
root 2.903442 37.090551 5.382134 -0.286646 -6.263781 1.045276
RightUpLeg 8.808585 -5.556555 -3.626934
RightLeg -5.522608 -0.000000 0.000000
RightFoot -10.194217 -10.790625 15.984697
RightToeBase 13.287192 -0.000000 -0.000000
LeftUpLeg 8.829107 7.876370 3.467227
LeftLeg -3.571365 -0.000000 0.000000
LeftFoot -8.049792 8.342682 -17.373237
LeftToeBase 8.432061 -0.000000 -0.000000
Spine -1.118723 -6.139417 -4.132345
RightShoulder -19.557844 3.779702 -35.630115
RightArm 170.657112 51.317366 115.654972
RightForeArm 61.848284 -0.000000 142.889173
RightHand 23.077185 -0.000000 2.022899
RightHandThumb1 -24.326973 -0.000000 -32.862282
LeftShoulder -28.406278 16.273977 37.402678
LeftArm 161.311244 -63.416625 -136.232430
LeftForeArm -38.616982 -0.000000 105.681895
LeftHand -13.188149 0.000000 -6.448204
LeftHandThumb1 -26.253704 0.000000 33.147579
Head 20.779569 26.398054 20.948065
1106
root 2.904669 37.088661 5.380291 -0.360719 -6.291976 1.051983
RightUpLeg 8.866336 -5.546928 -3.641186
RightLeg -5.509422 -0.000000 0.000000
RightFoot -10.237031 -10.786250 16.043033
RightToeBase 13.376232 -0.000000 -0.000000
LeftUpLeg 8.904191 7.896152 3.470810
LeftLeg -3.569257 -0.000000 0.000000
LeftFoot -8.058290 8.338100 -17.349828
LeftToeBase 8.460612 -0.000000 -0.000000
Spine -1.067117 -6.092629 -4.132735
RightShoulder -19.420072 3.537409 -35.690384
RightArm 170.505777 51.448961 115.859864
RightForeArm 61.924983 -0.000000 142.860895
RightHand 23.185684 -0.000000 1.553300
RightHandThumb1 -24.326973 -0.000000 -32.862282
LeftShoulder -28.352465 16.304287 37.452157
LeftArm 160.990313 -63.590401 -135.774145
LeftForeArm -38.350377 -0.000000 105.575102
LeftHand -13.129524 -0.000000 -6.232054
LeftHandThumb1 -26.253704 0.000000 33.147579
Head 21.443237 26.605892 21.005717
1107
root 2.908025 37.087381 5.376939 -0.424709 -6.331314 1.060951
RightUpLeg 8.912643 -5.513402 -3.660796
RightLeg -5.499835 -0.000000 0.000000
RightFoot -10.246458 -10.775461 16.025167
RightToeBase 13.374070 -0.000000 -0.000000
LeftUpLeg 8.965428 7.917688 3.464081
LeftLeg -3.562200 -0.000000 0.000000
LeftFoot -8.079184 8.351637 -17.346076
LeftToeBase 8.433739 -0.000000 -0.000000
Spine -1.018871 -6.068503 -4.101979
RightShoulder -19.388922 3.358184 -35.809797
RightArm 169.974781 51.516849 115.786522
RightForeArm 61.798011 -0.000000 142.847238
RightHand 23.245905 -0.000000 1.146414
RightHandThumb1 -24.326973 -0.000000 -32.862282
LeftShoulder -28.319499 16.373241 37.417834
LeftArm 160.820844 -63.740493 -135.449050
LeftForeArm -38.037264 -0.000000 105.478984
LeftHand -13.098640 -0.000000 -6.227780
LeftHandThumb1 -26.253704 0.000000 33.147579
Head 22.086096 26.805848 20.944807
1108
root 2.908498 37.085842 5.373622 -0.494143 -6.360866 1.074873
RightUpLeg 8.969693 -5.491139 -3.679137
RightLeg -5.499546 -0.000000 0.000000
RightFoot -10.284704 -10.776496 16.040044
RightToeBase 13.486243 -0.000000 -0.000000
LeftUpLeg 9.025266 7.928913 3.457316
LeftLeg -3.544833 -0.000000 0.000000
LeftFoot -8.091715 8.364411 -17.341491
LeftToeBase 8.424895 -0.000000 -0.000000
Spine -0.950438 -6.036483 -4.127170
RightShoulder -19.323902 3.140285 -35.861462
RightArm 169.570766 51.579320 115.889380
RightForeArm 61.792721 -0.000000 142.830053
RightHand 23.300442 -0.000000 0.733002
RightHandThumb1 -24.326973 -0.000000 -32.862282
LeftShoulder -28.328599 16.487801 37.425100
LeftArm 160.646454 -63.798111 -135.153542
LeftForeArm -37.466850 0.000000 105.405324
LeftHand -13.011355 -0.000000 -6.136207
LeftHandThumb1 -26.253704 0.000000 33.147579
Head 22.667356 26.911544 20.911780
